# xmcd
#
# Track frame offsets: 
#        150
#        25507
#        45957
#        67555
#        100339
#        116950
#        138065
#        155633
#        182880
#        207621
#
# Disc length: 3100 seconds
#
# Revision: 1
# Processed by: cddbd v1.5.2PL0 Copyright (c) Steve Scherf et al.
# Submitted via: ExactAudioCopy v0.99pb5
#
DISCID=800c1a0a
DTITLE=Thanh Tuyen - Duyen Tinh
DYEAR=2010
DGENRE=Gold
TTITLE0=Ngau hung ly qua cau
TTITLE1=Toi van nho
TTITLE2=O hai dau noi nho
TTITLE3=Que huong
TTITLE4=Loi ve xom nho
TTITLE5=Tinh yeu tren song Quan Ho
TTITLE6=Ngay ve
TTITLE7=Ve dat Mui
TTITLE8=Bong hong cai ao
TTITLE9=Duyen tinh
EXTD=
EXTT0=
EXTT1=
EXTT2=
EXTT3=
EXTT4=
EXTT5=
EXTT6=
EXTT7=
EXTT8=
EXTT9=
PLAYORDER=
